SplineFontDB: 3.0
FontName: zbalermorna-manri
FullName: Zbalermorna zei Manri
FamilyName: zbalermorna
Weight: Regular
Copyright: Copyright (c) 2016, la kmir
UComments: "2016-12-9: Created with FontForge (http://fontforge.org)"
Version: 001.000
ItalicAngle: 0
UnderlinePosition: -90
UnderlineWidth: 464
Ascent: 800
Descent: 200
InvalidEm: 0
LayerCount: 2
Layer: 0 0 "Back" 1
Layer: 1 0 "Fore" 0
XUID: [1021 15 -1537435809 229010]
FSType: 0
OS2Version: 0
OS2_WeightWidthSlopeOnly: 0
OS2_UseTypoMetrics: 1
CreationTime: 1481267425
ModificationTime: 1563930477
PfmFamily: 17
TTFWeight: 400
TTFWidth: 5
LineGap: 82
VLineGap: 0
OS2TypoAscent: 0
OS2TypoAOffset: 1
OS2TypoDescent: 0
OS2TypoDOffset: 1
OS2TypoLinegap: 82
OS2WinAscent: 0
OS2WinAOffset: 1
OS2WinDescent: 0
OS2WinDOffset: 1
HheadAscent: 0
HheadAOffset: 1
HheadDescent: 0
HheadDOffset: 1
OS2Vendor: 'PfEd'
MarkAttachClasses: 2
"vowel" 0 
DEI: 91125
LangName: 1033
Encoding: Custom
UnicodeInterp: none
NameList: AGL For New Fonts
DisplaySize: -96
AntiAlias: 1
FitToEm: 0
WinInfo: 368 16 10
BeginPrivate: 0
EndPrivate
Grid
-1000 680 m 0
 2000 680 l 1024
  Named: "vowel"
-1000 -255 m 0
 2000 -255 l 1024
  Named: "descender"
0 725 m 0
 800 725 l 1024
  Named: "ascender"
270 1200 m 0
 270 0 l 1024
  Named: "narrow"
50 1000 m 0
 50 -300 l 1024
  Named: "left"
150 1300 m 0
 150 -300 l 1024
  Named: "instem"
550 1000 m 0
 550 -300 l 1024
  Named: "right"
450 1300 m 0
 450 -300 l 1024
  Named: "instem"
0 470 m 0
 1000 470 l 1024
  Named: "x-height"
300 1000 m 0
 300 -200 l 1024
  Named: "center"
-1000 235 m 0
 1000 235 l 1024
  Named: "midpoint"
-1000 0 m 0
 1000 0 l 1024
  Named: "baseline"
EndSplineSet
AnchorClass2: """" 
BeginChars: 528 365

StartChar: ZLM_NULL
Encoding: 0 926464 0
Width: 300
VWidth: 0
GlyphClass: 2
Flags: W
HStem: 157 156<96.2149 203.785>
VStem: 72 156<181.215 288.785>
LayerCount: 2
Fore
SplineSet
72 235 m 4
 72 278 107 313 150 313 c 4
 193 313 228 278 228 235 c 4
 228 192 193 157 150 157 c 4
 107 157 72 192 72 235 c 4
EndSplineSet
EndChar

StartChar: ZLM_H
Encoding: 16 926480 12
Width: 300
VWidth: 0
GlyphClass: 2
Flags: HW
HStem: 0 21G<80 180>
VStem: 80 100<0 470>
LayerCount: 2
Fore
SplineSet
26 435 m 24
 172 470 l 0
 200 470 l 1
 200 470 200 223 200 65 c 27
 200 42 216 21 240 21 c 3
 240 0 l 1
 50 0 l 1
 50 20 l 3
 82 20 100 40 100 66 c 3
 100 194 100 250.932222855 100 369 c 19
 100 398.144862506 105.561260792 429.50797427 34 412 c 0
 26 435 l 24
EndSplineSet
EndChar

StartChar: ZLM_P
Encoding: 32 926496 24
Width: 450
VWidth: 0
Flags: HW
HStem: 0 21G<50.9724 167.021>
VStem: 51 99<119 725>
LayerCount: 2
Fore
SplineSet
0 691 m 1
 120 725 l 0
 151 725 l 1
 150 73 l 0
 203.671318623 77.8425413738 243.97616186 153.044525633 269.271013756 233.999997391 c 0
 291.725054982 305.863533412 302.351263009 382.260802259 300 418 c 1
 302.1328125 436.666992188 292 449 270 451 c 1
 270 470 l 1
 401 470 l 1
 401 470 383 320 363 252 c 0
 329.052734375 136.579101562 255 0 98 0 c 0
 98 0 33.5458984375 0 0 0 c 1
 0 22 l 0
 24 23 50 28 50 74 c 0
 50 634 l 0
 53 669 43 673 0 668 c 0
 0 691 l 1
EndSplineSet
EndChar

StartChar: ZLM_T
Encoding: 48 926512 36
Width: 500
VWidth: 0
GlyphClass: 2
Flags: HW
HStem: 0 21G<50 150 450 550> 400 80<228.671 371.847>
VStem: 50 100<0 313.49 434 725> 450 100<0 311.21>
LayerCount: 2
Fore
SplineSet
150 0 m 1
 0 0 l 1
 0 20 l 0
 26 21 50 34 50 59 c 0
 50 634 l 1
 50 654 43 680 10 669 c 9
 3 688 l 1
 117 725 l 0
 150 725 l 1
 150 338 l 1
 224 438 279 480 334 480 c 0
 411 480 448.264122817 423.005962843 449 267 c 2
 450 55 l 0
 450 32 470 22 500 21 c 0
 500 0 l 1
 305 0 l 1
 305 20 l 0
 335.145458647 21.0493424159 349 34 349 59 c 0
 349 268 l 1
 349 321 337 400 285 400 c 0
 232 400 187 342 150 304 c 0
 150 58 l 0
 150 34 177 20 208 20 c 0
 208 0 l 0
 150 0 l 1
EndSplineSet
EndChar

StartChar: ZLM_K
Encoding: 64 926528 48
Width: 501
VWidth: 0
GlyphClass: 2
Flags: HW
HStem: 0 21G<51 167.901 451 551>
VStem: 51 101<133 725> 451 100<0 355>
LayerCount: 2
Fore
SplineSet
1 689 m 1
 127 725 l 0
 152 725 l 1
 151 131 l 0
 209 16 333 143 351 190 c 1
 349 405 l 1
 355.5234375 449.022460938 325 446 295.326171875 447 c 0
 295 470 l 1
 451 470 l 1
 451 76 l 0
 451 34 474 41 500 45 c 0
 504 23 l 1
 370 0 l 0
 350 0 l 1
 350.220703125 0 351.982421875 261.99609375 351 147 c 0
 350.872070312 132 266 0 165 0 c 3
 91.2345156969 0 53.1282118166 63.3377478046 51 90 c 0
 51 643 l 0
 51 671 34 675 1 671 c 0
 1 689 l 1
EndSplineSet
EndChar

StartChar: ZLM_F
Encoding: 80 926544 60
Width: 550
VWidth: 0
GlyphClass: 2
Flags: HW
HStem: 0 21G<230 330> 390 80<50 348.588 440.267 550>
VStem: 230 100<0 296.395>
LayerCount: 2
Fore
SplineSet
388 402 m 5
 147 402 l 7
 108 402 79 395 79 343 c 4
 50 343 l 5
 50 470 l 5
 500 470 l 5
 500 442 l 5
 500 442 280 303 280 178 c 30
 280 63 l 7
 280 33.982421875 297.211914062 24 322 24 c 5
 322 0 l 5
 288.666992188 0 175.333007812 0 142 0 c 5
 142 25 l 7
 167 25 180 34 180 64 c 4
 180 64 180 55 180 113 c 7
 180 278 388 402 388 402 c 5
EndSplineSet
EndChar

StartChar: ZLM_BAHEBU_1
Encoding: 95 926559 71
Width: 227
VWidth: 0
GlyphClass: 2
Flags: HW
HStem: -241 120<71.7454 164.255>
VStem: 58 120<-227.255 -134.745>
LayerCount: 2
Fore
SplineSet
58 -191 m 4
 58 -158 85 -131 118 -131 c 4
 151 -131 178 -158 178 -191 c 4
 178 -224 151 -251 118 -251 c 4
 85 -251 58 -224 58 -191 c 4
EndSplineSet
EndChar

StartChar: ZLM_L
Encoding: 96 926560 72
Width: 500
VWidth: 0
GlyphClass: 2
Flags: HW
HStem: -10 80<207.495 353.877> 400 80<207.495 358.388>
VStem: 21.0498 110<148.617 321.383>
LayerCount: 2
Fore
SplineSet
444 298 m 0
 381.258051345 285.480906759 373.043085744 328.907449588 376 371 c 0
 377.951645526 398.78225224 361.951171875 446.573242188 270 443 c 0
 237.775390625 441.748046875 201.782558978 418.279739632 177 388 c 0
 146.79787582 351.098546146 136.696576727 296.086073001 144 235 c 0
 146.142072914 217.083631539 149.057195726 200.801672502 152.805494289 186 c 4
 169.420543752 120.388758883 202.406455137 83.8632976369 257 63 c 0
 288.964879785 50.7844019368 373.149414062 25.2392578125 450 148 c 1
 472.5 141 l 1
 437.348632812 46.490234375 388.459173598 -10.1490509492 275.899414062 -10 c 0
 132.799930149 -9.81050853351 44.599609375 98 44.599609375 235 c 0
 44.599609375 372 138.857362491 474.178966156 263 479 c 0
 370.896027612 483.190102701 405.03557126 452.463038521 439 420 c 0
 471.269227586 389.157226633 483.584596997 305.898435916 444 298 c 0
EndSplineSet
EndChar

StartChar: ZLM_BAHEBU_2
Encoding: 111 926575 83
Width: 227
VWidth: 0
GlyphClass: 2
Flags: HW
HStem: -241 120<71.7454 164.255>
VStem: 58 120<-227.255 -134.745>
LayerCount: 2
Fore
SplineSet
138 -191 m 0
 138 -158 165 -131 198 -131 c 0
 231 -131 258 -158 258 -191 c 0
 258 -224 231 -251 198 -251 c 0
 165 -251 138 -224 138 -191 c 0
-32 -191 m 0
 -32 -158 -5 -131 28 -131 c 0
 61 -131 88 -158 88 -191 c 0
 88 -224 61 -251 28 -251 c 0
 -5 -251 -32 -224 -32 -191 c 0
EndSplineSet
EndChar

StartChar: ZLM_S
Encoding: 112 926576 84
Width: 600
VWidth: 0
GlyphClass: 2
Flags: HW
HStem: -9 80<168.445 311.547> 401 80<124.933 216.709>
VStem: -18 110<149.617 359.406> 228.87 105.893<323.147 389.515> 389 100<157.313 726>
LayerCount: 2
Fore
SplineSet
323 676 m 1
 470 725 l 0
 488 725 l 1
 488 291 l 2
 488 203.07421875 488 100 488 100 c 1
 481.705078125 59.0234375 512 73 535 78 c 0
 541 52 l 0
 409 0 l 0
 388 0 l 0
 388 93 l 1
 388 93 311 -20 219 -20 c 0
 92 -20 43.990234375 89 42 191 c 0
 38 396 176.973632812 476 252 476 c 3
 316 476 354 445 388 398 c 0
 388 270 l 1
 388 356 318 438 259 435 c 0
 208.065429688 432.41015625 133.7421875 397.026367188 131 238 c 0
 128 64 233 44 277 50 c 0
 319.037109375 55.732421875 359 89 388 131 c 1
 388 131 388 207.87109375 388 246 c 2
 388 633 l 0
 388 654 354 660 330 654 c 0
 323 676 l 1
EndSplineSet
EndChar

StartChar: ZLM_BAHEBU_3
Encoding: 127 926591 95
Width: 227
VWidth: 0
GlyphClass: 2
Flags: HW
HStem: -241 120<71.7454 164.255>
VStem: 58 120<-227.255 -134.745>
LayerCount: 2
Fore
SplineSet
148 -241 m 0
 148 -208 175 -181 208 -181 c 0
 241 -181 268 -208 268 -241 c 0
 268 -274 241 -301 208 -301 c 0
 175 -301 148 -274 148 -241 c 0
-32 -241 m 0
 -32 -208 -5 -181 28 -181 c 0
 61 -181 88 -208 88 -241 c 0
 88 -274 61 -301 28 -301 c 0
 -5 -301 -32 -274 -32 -241 c 0
58 -91 m 0
 58 -58 85 -31 118 -31 c 0
 151 -31 178 -58 178 -91 c 0
 178 -124 151 -151 118 -151 c 0
 85 -151 58 -124 58 -91 c 0
EndSplineSet
EndChar

StartChar: ZLM_C
Encoding: 128 926592 96
Width: 500
VWidth: 0
GlyphClass: 2
Flags: HW
HStem: 0 21G<50 150 450 550> 400 80<227.223 371.329>
VStem: 50 100<0 315.47 437.527 470> 450 100<0 313.49 434 725>
LayerCount: 2
Fore
SplineSet
300 0 m 1
 300 21 l 0
 321 22 350 37 350 72 c 4
 350 627 l 4
 349 683 326 680 304 674 c 0
 294 695 l 1
 427 725 l 0
 450 725 l 1
 450 68 l 0
 450 28 470 20 487 20 c 0
 487 0 l 1
 300 0 l 1
349 0 m 1
 349 0 348.440901894 143.013211747 350 235 c 0
 352.152542373 362 349 411 259 411 c 0
 235 411 201 394 150 329 c 1
 150 243 150 71 150 71 c 1
 149.401775087 34.1272720444 172.028722711 21.2125058365 206 20 c 0
 206 0 l 1
 0 0 l 1
 0 20 l 0
 23.5359624667 20.7773302353 50 41 50 62 c 0
 50 71 l 1
 50 234 l 1
 50 394 l 0
 50 423 26 417 4 412 c 0
 -4 435 l 1
 127 470 l 0
 150 470 l 1
 150 370 l 1
 191 431 227 478 279 478 c 0
 377 478 451.274509804 240 450 110 c 1
 450 0 l 1
 349 0 l 1
EndSplineSet
EndChar

StartChar: ZLM_M
Encoding: 144 926608 108
Width: 550
VWidth: 0
GlyphClass: 2
Flags: HW
HStem: 0 80<44 297.953 435.412 544> 400 80<211.241 369.275>
VStem: 433.997 110.002<186.082 338.106>
LayerCount: 2
Fore
SplineSet
415 212 m 0
 404 203.438790907 215.750976562 84.8203125 198 80 c 1
 425 80 l 0
 475 80 487 100 496 116 c 0
 509 116 l 1
 473 0 l 1
 50 0 l 1
 50 22 l 2
 50 28.439384626 206.457933064 115.08897002 282 170 c 0
 403 257.954101562 407.31640625 334.537109375 368 374 c 0
 323.303710938 418.86328125 199.880955128 421.402209989 129 370.662109375 c 0
 101.969726562 351.3125 78.216796875 326.750976562 59 288 c 0
 49 288 l 1
 77.060546875 369.390625 86.318359375 376.450195312 126 412 c 0
 196.037109375 474.74609375 370.40383786 493.727298328 452 419 c 0
 520.706543012 356.077257041 478.275563523 261.246848163 415 212 c 0
EndSplineSet
EndChar

StartChar: ZLM_X
Encoding: 160 926624 120
Width: 600
VWidth: 0
GlyphClass: 2
Flags: HW
HStem: -10 80<211.165 352.275> 400 80<211.165 352.275>
VStem: 24.7197 110<148.617 321.383> 428.72 110<148.617 321.383>
LayerCount: 2
Fore
SplineSet
137 210 m 0
 152.607421875 107.177734375 227.999954679 20.0002140164 313 38 c 0
 400.34375 56.49609375 428 166 406 277 c 0
 385.780273438 379.015625 335.653284806 459.440618316 243 442 c 0
 158 426 120 322 137 210 c 0
35 235 m 4
 35.8725937648 371.997221067 149.239257812 480 281.719726562 480 c 0
 414.200195312 480 511 372 511 235 c 4
 511 98 414.200195312 -10 281.719726562 -10 c 0
 149.239257812 -10 34.0318471338 83 35 235 c 4
EndSplineSet
EndChar

StartChar: ZLM_B
Encoding: 176 926640 132
Width: 450
VWidth: 0
GlyphClass: 2
Flags: HW
HStem: 0 21G<50 167.094>
VStem: 450 100<-255 351>
LayerCount: 2
Fore
SplineSet
401 -255 m 1
 333.651692708 -255 266.303385417 -255 198.955078125 -255 c 1
 199 -234 l 3
 245 -234 250.136503067 -201.011980017 250.136503067 -166 c 0
 251 397 l 0
 149.685546875 387.858398438 96 128 101 52 c 1
 98.8671875 33.3330078125 109 21 131 19 c 1
 131 0 l 1
 -26 0 l 1
 -26 21 l 3
 -2 21 2.27010315089 32 9.18556674962 67.999998399 c 2
 9.18556674962 67.999998399 26.8491338862 180.087055213 38 218 c 0
 71.947265625 333.420898438 146 470 303 470 c 0
 303 470 367.454101562 470 401 470 c 1
 401 448 l 0
 377 447 351 442 351 396 c 0
 351 -167 l 3
 351 -204 355 -233 401 -233 c 0
 401 -255 l 1
EndSplineSet
EndChar

StartChar: ZLM_D
Encoding: 192 926656 144
Width: 500
VWidth: 0
GlyphClass: 2
Flags: HW
HStem: -10 80<226.153 369.329>
VStem: 48 100<158.79 470> 448 100<-255 36 156.51 470>
LayerCount: 2
Fore
SplineSet
450 470 m 1
 451 -189 l 1
 451 -209 465.161132812 -235 501 -235 c 0
 501 -255 l 0
 403 -255 l 0
 301 -255 l 0
 301 -236 l 3
 334 -236 351 -207 351 -191 c 3
 351 -83 350 132 350 132 c 1
 276 32 221 -10 166 -10 c 0
 89 -10 51.736328125 46.994140625 51 203 c 2
 50 415 l 0
 50 438 30 448 0 449 c 0
 0 470 l 1
 150 470 l 9
 150 202 l 1
 150 149 163 70 215 70 c 0
 268 70 313 128 350 166 c 0
 350 412 l 0
 350 436 323 450 292 450 c 0
 292 470 l 1
 450 470 l 1
EndSplineSet
EndChar

StartChar: ZLM_G
Encoding: 208 926672 156
Width: 450
VWidth: 0
GlyphClass: 2
Flags: HW
HStem: 0 21G<50 167.745>
VStem: 50 100<115 470> 449 101<-255 337>
LayerCount: 2
Fore
SplineSet
450 -255 m 1
 325 -255 l 0
 245.970703125 -255 l 1
 246 -236 l 3
 283 -236 300.024243024 -209 300.107361963 -185 c 0
 300.89352397 41.9986640399 301 397 301 397 c 0
 211 398.394565443 190.489271612 345.760873466 150 258 c 1
 150 70 l 3
 150 25.4970703125 176 24 205.673828125 23 c 0
 206 0 l 1
 0 0 l 1
 0 20 l 3
 20.5795443187 20 50 29 50 52 c 27
 50 185 50 394 50 394 c 0
 50 436 27 429 1 425 c 0
 -3 447 l 1
 131 470 l 0
 150 470 l 1
 150 304 l 1
 180.745946833 391.427482971 186.751830059 470.286182547 343 470 c 0
 343 470 417.454101562 470 451 470 c 1
 451 452 l 0
 429 452 401 437 401 411 c 0
 401 -182 l 0
 401 -210 416.758459723 -237 450 -237 c 0
 450 -255 l 1
EndSplineSet
EndChar

StartChar: ZLM_V
Encoding: 224 926688 167
Width: 550
VWidth: 0
GlyphClass: 2
Flags: HW
HStem: 0 80<54 163.733 255.412 554>
VStem: 274 100<173.605 470>
LayerCount: 2
Fore
SplineSet
181 80 m 1
 432 80 l 3
 470.708984375 80 487.770507812 79.0634765625 507 127 c 0
 521 127 l 1
 493 0 l 1
 52 0 l 1
 52 28 l 1
 52 28 272 128 272 253 c 26
 272 407 l 3
 272 444 257 450 225 450 c 1
 225 470 l 1
 258.333007812 470 338.666992188 470 372 470 c 1
 372 425 372 412.61328125 372 318 c 3
 372 153 181 80 181 80 c 1
EndSplineSet
EndChar

StartChar: ZLM_R
Encoding: 240 926704 178
Width: 500
VWidth: 0
GlyphClass: 2
Flags: HW
HStem: -10 80<212.594 363.555> 400 80<217.241 363.555>
VStem: 440 110<148.617 321.383>
LayerCount: 2
Fore
SplineSet
59.7001953125 319 m 1
 84 315 l 0
 116.399414062 398 146.299804688 440 237.200195312 440 c 0
 271.068359375 440 301.0625 419.729492188 323.857421875 388 c 0
 351.944335938 348.903320312 369.099609375 292.409179688 369.099609375 235 c 0
 369.099609375 131 312.799804688 34 237.200195312 34 c 0
 176.899414062 34 122 44 67.099609375 151 c 1
 44.599609375 144 l 1
 87.7998046875 51 125.599609375 -10 237.200195312 -10 c 0
 380.299804688 -10 468.5 98 468.5 235 c 0
 468.5 372 374.144543269 472.108614784 250.099609375 479 c 0
 178.099609375 483 129.299804688 443 114 443 c 0
 105 443 95.099609375 470 95.099609375 470 c 1
 65.2998046875 470 l 1
 59.7001953125 319 l 1
EndSplineSet
EndChar

StartChar: ZLM_Z
Encoding: 256 926720 189
Width: 600
VWidth: 0
GlyphClass: 2
Flags: HW
HStem: -10 80<322.291 414.067> 400 80<227.453 370.555>
VStem: 50 100<-255 313.687> 204.237 105.893<81.4847 147.853> 447 110<111.594 321.383>
LayerCount: 2
Fore
SplineSet
258 -255 m 1
 113 -255 l 0
 38 -255 l 1
 38 -230 l 0
 71.6044921875 -229.022460938 92.9918683245 -220.852788215 95 -166 c 0
 95 179 l 2
 95 266.92578125 95 370 95 370 c 1
 101.294921875 410.9765625 71 397 48 392 c 0
 42 418 l 0
 174 470 l 0
 195 470 l 0
 195 377 l 1
 195 377 272 490 364 490 c 0
 491 490 539.009765625 381 541 279 c 0
 545 74 406.026367188 -6 331 -6 c 3
 267 -6 229 25 195 72 c 0
 195 200 l 1
 195 114 265 32 324 35 c 0
 374.934570312 37.58984375 449.2578125 72.9736328125 452 232 c 0
 455 406 350 426 306 420 c 0
 263.962890625 414.267578125 224 381 195 339 c 1
 195 339 195 262.12890625 195 224 c 2
 195 -163 l 3
 195 -208.177427992 212 -230 258 -230 c 0
 258 -255 l 1
EndSplineSet
EndChar

StartChar: ZLM_J
Encoding: 272 926736 200
Width: 550
VWidth: 0
GlyphClass: 2
Flags: HW
HStem: -10 80<241.671 385.777> 0 21G<463 563>
VStem: 63 100<-255 36 156.51 470> 463 100<0 32.4736 154.53 470>
LayerCount: 2
Fore
SplineSet
151 470 m 17
 150.408934708 126 l 0
 150 -167 l 0
 151 -223 172.196289062 -224 195 -224 c 0
 195 -255 l 1
 0 -255 l 0
 0 -225 l 3
 26.0732421875 -225 50.892578125 -209.4375 50 -165 c 1
 50 402 l 0
 50 442 30 450 13 450 c 0
 13 470 l 1
 151 470 l 17
151 470 m 1
 151 470 151.559570312 326.986328125 150 235 c 0
 147.84765625 108 151 59 241 59 c 0
 265 59 299 76 350 141 c 1
 350 227 350 399 350 399 c 1
 350.598632812 435.873046875 327.971679688 448.787109375 294 450 c 0
 294 470 l 1
 450 470 l 25
 450 399 l 1
 450 236 l 1
 450 76 l 0
 450 47 474 53 496 58 c 0
 504 35 l 1
 373 0 l 0
 350 0 l 1
 350 100 l 1
 309 39 273 -8 221 -8 c 0
 123 -8 48.7255859375 230 50 360 c 1
 50 470 l 1
 151 470 l 1
EndSplineSet
EndChar

StartChar: ZLM_SEMIVOWEL_W
Encoding: 320 926784 233
Width: 600
VWidth: 0
Flags: HW
HStem: 0 21G<241.532 359.468>
LayerCount: 2
Fore
SplineSet
309.5 92.3251953125 m 1
 445.06640625 402 l 2
 463.262695312 444 420.544921875 439.53125 380 440 c 0
 379 470 l 1
 550 470 l 1
 550 440 l 19
 513.229492188 440 492.369975797 441.983899307 472.66796875 396 c 2
 303 0 l 1
 250 0 l 2
 78.0978723404 406 l 0
 58.0246793267 441.931243011 28 442 0 442 c 0
 0 470 l 1
 224 470 l 1
 224.212890625 442 l 3
 204 442 159.685368627 447.239396297 175.531928993 410 c 2
 309.5 92.3251953125 l 1
EndSplineSet
EndChar

StartChar: ZLM_DIACRITIC_A
Encoding: 336 926800 244
Width: 300
VWidth: 0
GlyphClass: 2
Flags: HW
HStem: 106 244<122 177>
VStem: 105 90<181.778 350>
LayerCount: 2
Fore
SplineSet
127 106 m 1
 110 230 l 1
 110 265 l 1
 190 265 l 1
 190 230 l 1
 172 106 l 1
 127 106 l 1
EndSplineSet
EndChar

StartChar: ZLM_DIACRITIC_E
Encoding: 352 926816 255
Width: 300
VWidth: 0
GlyphClass: 2
Flags: HW
HStem: 200 72<30 270>
VStem: 30 240<200 272>
LayerCount: 2
Fore
SplineSet
30 213 m 1
 30 259 l 1
 270 259 l 1
 270 213 l 1
 30 213 l 1
EndSplineSet
EndChar

StartChar: ZLM_DIACRITIC_I
Encoding: 368 926832 266
Width: 300
VWidth: 0
GlyphClass: 2
Flags: HW
HStem: 175 120<103.745 196.255>
VStem: 90 120<188.745 281.255>
LayerCount: 2
Fore
SplineSet
93 235 m 0
 93 266.349609375 118.650390625 292 150 292 c 0
 181.349609375 292 207 266.349609375 207 235 c 0
 207 203.650390625 181.349609375 178 150 178 c 0
 118.650390625 178 93 203.650390625 93 235 c 0
EndSplineSet
EndChar

StartChar: ZLM_DIACRITIC_O
Encoding: 384 926848 277
Width: 300
VWidth: 0
GlyphClass: 2
Flags: HW
HStem: 185 61<146.851 230.539> 225 57<68.5447 148.178>
VStem: 4 58<184 213.67> 238 56<253.237 283>
LayerCount: 2
Fore
SplineSet
41 184 m 1x70
 41 214 43.3155141004 238.366656944 57 259 c 0
 68.938113943 277.000179344 81.298649944 281.999989419 107 282 c 0x70
 125 282.000007411 133.434922657 273.854154044 165 259 c 0
 182 251 196 246 206 246 c 0
 216 246 222 248 227 253 c 0
 232 258 236 267 238 283 c 1
 256 283 l 1
 255 249 257 221 241 204 c 0
 225 187 217 185 193 185 c 0xb0
 175 185 167.087219561 193.164621284 137 209 c 0
 118 219 103 225 95 225 c 0
 85 225 77 221 71 214 c 0
 65 207 62 197 62 184 c 1
 41 184 l 1x70
EndSplineSet
EndChar

StartChar: ZLM_DIACRITIC_Y
Encoding: 416 926880 299
Width: 300
VWidth: 0
GlyphClass: 2
Flags: HW
HStem: 136.05 45.9502<114.403 197.263> 288 44.9502<115.132 197.135>
VStem: 58.2002 45.7998<192.341 277.505> 208 43.7998<193.173 276.748>
LayerCount: 2
Fore
SplineSet
155 136.049804688 m 0
 99.9868692412 136.049804688 58.2001953125 180.508706062 58.2001953125 236.150390625 c 0
 58.2001953125 288.491961569 102.660363084 332.950195312 155 332.950195312 c 0
 207.921200601 332.950195312 251.799804688 287.162373192 251.799804688 233.950195312 c 0
 251.799804688 179.756968159 208.512739963 136.049804688 155 136.049804688 c 0
156 298 m 0
 121 298 95.0625 270 94 236 c 0
 92.8125 198 121 172 156 172 c 256
 191 172 217.054054054 200 218 235 c 256
 218.891891892 268 191 298 156 298 c 0
EndSplineSet
EndChar

StartChar: ZLM_DIACRITIC_EI
Encoding: 448 926912 321
Width: 300
VWidth: 0
GlyphClass: 2
Flags: HW
HStem: 241 61<88.477 210.718>
VStem: 5 61<175 217.855> 234 60<175 217.855>
LayerCount: 2
Fore
SplineSet
274 185 m 1
 255 185 l 1
 140 266 l 0
 47 185 l 1
 25 185 l 1
 113 310 l 0
 124.326171875 309.912109375 186 309.568359375 186 309.568359375 c 1
 274 185 l 1
EndSplineSet
EndChar

StartChar: ZLM_DIACRITIC_OI
Encoding: 464 926928 332
Width: 300
VWidth: 0
GlyphClass: 2
Flags: HW
HStem: 128 61<165.58 230.539> 177 60.6954<101.798 144.986>
VStem: 238 56<196.237 226>
LayerCount: 2
Fore
SplineSet
131 331 m 1x60
 181 331 l 1
 171.774414062 314.99609375 106 201 106 201 c 1x60
 134 235 156 217 165 211 c 0
 179.814234319 201.123843787 196 189 206 189 c 0
 216 189 233 191 238 196 c 0
 243 201 251 210 253 226 c 1
 273 226 l 1
 272 192 259 162 243 145 c 0
 227 128 220 128 196 128 c 0xa0
 178 128 165.048678558 140.801206854 137 161 c 0
 131.147041472 165.214911528 119 177 109 177 c 0
 94.595703125 177 79.4384765625 152.741210938 73 136 c 1
 24 136 l 2
 23 136 l 1
 131 331 l 1x60
EndSplineSet
EndChar

StartChar: ZLM_DIACRITIC_AU
Encoding: 480 926944 343
Width: 227
VWidth: 0
GlyphClass: 2
Flags: HW
HStem: 261.968 92.0319<51.3944 99.6918>
VStem: 113.611 70.4574<178.414 264.87>
LayerCount: 2
Fore
SplineSet
45.4005593549 307.441844565 m 0
 46.2955689861 327.746003428 55.5998306073 348.744578901 80 354 c 0
 157.124616419 370.611455842 191.5859375 323.030273438 182 249 c 0
 171.51171875 168 103 146.3984375 63 133 c 1
 65 156 l 1
 65 156 134.933525381 179.431743353 144 227 c 0
 146.361842588 239.391667002 149.374000653 294.297839774 130 274 c 0
 117.636805022 261.047272514 42.7161867428 246.544256358 45.4005593549 307.441844565 c 0
EndSplineSet
EndChar

StartChar: ZLM_CAS_ISO
Encoding: 496 926960 354
Width: 460
VWidth: 0
GlyphClass: 2
Flags: HW
HStem: 0 21G<330 410> 246 91.8711<163.67 203.32>
VStem: 330 80<0 350>
LayerCount: 2
Fore
SplineSet
171 390 m 0
 219.869140625 387.1171875 233.072265625 335.458984375 203 313 c 1
 304 332.836914062 330 470 330 470 c 1
 450 470 l 1
 450 447 l 3
 423.146484375 447 410 426 410 403 c 19
 410 66 l 3
 410 50 421 22 453 22 c 0
 453 0 l 1
 290 0 l 1
 290 20 l 3
 321 20 330 42 330 66 c 3
 330 190 330 414 330 414 c 1
 330 414 256 246 173 246 c 3
 130 246 98.0478515625 273 98.0478515625 312.744140625 c 3
 98.0478515625 370 141.028320312 391.767578125 171 390 c 0
EndSplineSet
EndChar

StartChar: ZLM_FULL_A
Encoding: 497 926961 355
Width: 600
VWidth: 1024
GlyphClass: 2
Flags: W
HStem: 0 21G<50 150> 390 80<150 550>
VStem: 50 100<0 390>
LayerCount: 2
Fore
SplineSet
150 0 m 1
 50 0 l 1
 50 156.666666667 50 313.333333333 50 470 c 1
 216.666666667 470 383.333333333 470 550 470 c 1
 550 390 l 1
 150 390 l 1
 150 0 l 1
EndSplineSet
EndChar

StartChar: ZLM_FULL_E
Encoding: 498 926962 356
Width: 600
VWidth: 1024
GlyphClass: 2
Flags: W
HStem: 0 21G<49 149> 195 80<149 550>
VStem: 49 100<0 195 275 470>
LayerCount: 2
Fore
SplineSet
149 0 m 1
 49 0 l 1
 49 470 l 1
 149 470 l 1
 149 275 l 1
 550 275 l 1
 550 195 l 1
 416.333333333 195 282.666666667 195 149 195 c 1
 149 0 l 1
EndSplineSet
EndChar

StartChar: ZLM_FULL_I
Encoding: 499 926963 357
Width: 600
VWidth: 1024
GlyphClass: 2
Flags: W
HStem: 0 21G<49 149 449 549> 390 80<149 449 549 550>
VStem: 49 100<0 390> 449 100<0 390>
LayerCount: 2
Fore
SplineSet
149 0 m 1
 49 0 l 1
 49 470 l 1
 550 470 l 1
 550 390 l 1
 549 390 l 1
 549 0 l 1
 449 0 l 1
 449 390 l 1
 349 390 249 390 149 390 c 1
 149 0 l 1
EndSplineSet
EndChar

StartChar: ZLM_FULL_O
Encoding: 500 926964 358
Width: 600
VWidth: 1024
GlyphClass: 2
Flags: W
HStem: 0 80<50 450>
VStem: 450 100<80 470>
LayerCount: 2
Fore
SplineSet
550 0 m 1
 50 0 l 1
 50 80 l 1
 450 80 l 1
 450 470 l 1
 550 470 l 1
 550 313.333333333 550 156.666666667 550 0 c 1
EndSplineSet
EndChar

StartChar: ZLM_FULL_U
Encoding: 501 926965 359
Width: 600
VWidth: 1024
GlyphClass: 2
Flags: W
HStem: 0 80<150 450>
VStem: 50 100<80 470> 450 100<80 470>
LayerCount: 2
Fore
SplineSet
50 0 m 1
 50 470 l 1
 83 470 117 470 150 470 c 1
 150 80 l 1
 450 80 l 1
 450 470 l 1
 483 470 517 470 550 470 c 1
 550 313 550 157 550 0 c 1
 50 0 l 1
EndSplineSet
EndChar

StartChar: ZLM_FULL_Y
Encoding: 502 926966 360
Width: 599
VWidth: 1024
GlyphClass: 2
Flags: W
HStem: 0 21G<251 350> 195 80<50 250 350 550>
VStem: 251 99<0 195 275 470>
LayerCount: 2
Fore
SplineSet
350 0 m 1
 251 0 l 1
 251 195 l 1
 50 195 l 1
 50 275 l 1
 250 275 l 1
 250 470 l 1
 350 470 l 1
 350 275 l 1
 550 275 l 1
 550 195 l 1
 350 195 l 1
 350 0 l 1
EndSplineSet
EndChar

StartChar: ZLM_FULL_AI
Encoding: 503 926967 361
Width: 600
VWidth: 1024
GlyphClass: 2
Flags: W
HStem: 0 80<150 550> 390 80<150 550>
VStem: 50 100<80 390>
LayerCount: 2
Fore
SplineSet
150 390 m 1
 150 80 l 1
 550 80 l 1
 550 0 l 1
 50 0 l 1
 50 470 l 1
 550 470 l 1
 550 390 l 1
 150 390 l 1
EndSplineSet
EndChar

StartChar: ZLM_FULL_EI
Encoding: 504 926968 362
Width: 600
VWidth: 1024
GlyphClass: 2
Flags: W
HStem: -5 62<199.965 416.429> 414 62<186.695 402.035>
VStem: 42 108<99.7867 149 308.904 383.018> 452 108<87.7838 161.402 322 371.213>
LayerCount: 2
Fore
SplineSet
456 322 m 1
 443 388 381 414 294 414 c 0
 245 414 210 407 186 393 c 0
 162 379 150 362 150 343 c 0
 150 313 181 301 214 293 c 1
 215 293 l 1
 281 276 407 257 465 239 c 0
 515 224 560 194 560 135 c 0
 560 110 550 87 529 65 c 0
 486 19 402 -5 309 -5 c 0
 163 -5 48 44 42 149 c 1
 146 149 l 1
 159 83 221 57 308 57 c 0
 357 57 392 64 416 78 c 0
 440 92 452 108 452 127 c 0
 452 157 421 170 388 178 c 1
 387 177 l 1
 321 194 195 214 137 232 c 0
 87 247 42 276 42 335 c 0
 42 360 52 384 73 406 c 0
 116 452 200 476 293 476 c 0
 439 476 554 427 560 322 c 1
 456 322 l 1
EndSplineSet
EndChar

StartChar: ZLM_FULL_OI
Encoding: 505 926969 363
Width: 600
VWidth: 1024
GlyphClass: 2
Flags: W
HStem: 0 80<50 450> 390 80<50 450>
VStem: 450 100<80 390>
LayerCount: 2
Fore
SplineSet
450 390 m 1
 316.666992188 390 183.333333333 390 50 390 c 1
 50 470 l 1
 550 470 l 1
 550 0 l 1
 383.333333333 -0 216.666666667 0 50 0 c 1
 50 80 l 1
 450 80 l 1
 450 390 l 1
EndSplineSet
EndChar

StartChar: ZLM_FULL_AU
Encoding: 506 926970 364
Width: 600
VWidth: 1024
GlyphClass: 2
Flags: W
HStem: 0 21G<51 167.021 433.979 550>
LayerCount: 2
Fore
SplineSet
51 470 m 1
 151 470 l 1
 300.5 293.897243108 l 1
 450 470 l 1
 483.333333333 470 516.666666667 470 550 470 c 1
 350.250312891 235.294117647 l 1
 550 0 l 1
 451 0 l 1
 300.5 176.8375 l 1
 150 0 l 1
 51 0 l 1
 250.749687109 235.294117647 l 1
 51 470 l 1
EndSplineSet
EndChar
